<svg width="80" height="80" viewBox="0 0 80 80" fill="none" xmlns="http://www.w3.org/2000/svg">
  <rect width="80" height="80" rx="2" fill="#C9F73A"/>
  <path d="M16.7038 18H10V34.4876C10 43.4048 15.3639 49.1369 23.8181 49.1369C32.2722 49.1369 37.7534 43.4048 37.7534 34.4876V18H31.0361V34.4262C31.0361 38.8824 28.3654 42.4266 23.8181 42.4266C19.388 42.4266 16.7038 38.8824 16.7038 34.4262V18Z" fill="black"/>
  <path d="M63.3008 62H70V45.5124C70 36.5952 64.6451 30.8631 56.191 30.8631C47.7368 30.8631 42.2556 36.5952 42.2556 45.5124V62H48.9729V45.5738C48.9729 41.1176 51.6436 37.5734 56.191 37.5734C60.621 37.5734 63.3008 41.1176 63.3008 45.5738V62Z" fill="black"/>
</svg>
